<svg width="32" height="32" viewBox="0 0 32 32" fill="none" xmlns="http://www.w3.org/2000/svg">
<g clip-path="url(#clip0_170_265)">
<path fill-rule="evenodd" clip-rule="evenodd" d="M4.60517e-07 15.9999C0.000103065 13.239 0.714622 10.5251 2.07408 8.12211C3.43354 5.71912 5.39168 3.70878 7.75809 2.28659C10.1245 0.864405 12.8187 0.0787558 15.5786 0.0060398C18.3385 -0.0666762 21.0703 0.576016 23.5083 1.87162C25.9464 3.16723 28.0076 5.07166 29.4917 7.39974C30.9759 9.72782 31.8323 12.4003 31.9778 15.1574C32.1233 17.9144 31.5528 20.6622 30.322 23.1336C29.0911 25.6049 27.2417 27.7157 24.9536 29.2607L10.4683 8.98123C10.337 8.7973 10.1508 8.6598 9.93632 8.58856C9.72189 8.51732 9.49037 8.51601 9.27515 8.58482C9.05993 8.65364 8.87212 8.78902 8.7388 8.97145C8.60547 9.15388 8.53353 9.37394 8.53333 9.5999V25.5999H10.6667V12.9279L23.104 30.3402C20.6643 31.5491 17.9565 32.1154 15.2368 31.9855C12.5172 31.8557 9.87564 31.0339 7.56226 29.598C5.24888 28.1621 3.34019 26.1597 2.01687 23.7801C0.693538 21.4006 -0.000652719 18.7227 4.60517e-07 15.9999ZM21.3333 21.3332V8.53323H23.4667V21.3332H21.3333Z" fill="black"/>
</g>
<defs>
<clipPath id="clip0_170_265">
<rect width="32" height="32" fill="white"/>
</clipPath>
</defs>
</svg>
