<svg width="26" height="26" viewBox="0 0 26 26" fill="none" xmlns="http://www.w3.org/2000/svg">
<g clip-path="url(#clip0_151_555)">
<path d="M11.4075 11.6241C11.2992 11.2883 11.2017 10.9633 11.0933 10.6275C10.985 10.2916 10.8875 9.97745 10.8008 9.66328C10.7142 9.35995 10.6383 9.07829 10.5625 8.81828H10.5408C10.4433 9.28412 10.3242 9.74995 10.1725 10.2158C10.01 10.7358 9.8475 11.2775 9.67417 11.8191C9.5225 12.3716 9.36 12.8808 9.1975 13.3358H11.9492C11.8842 13.1072 11.7975 12.8375 11.7 12.5547C11.6025 12.2633 11.505 11.9491 11.4075 11.6241ZM21.3958 0.324951H4.60417C2.05833 0.324951 0 2.38328 0 4.92912V21.0708C0 23.6166 2.05833 25.675 4.60417 25.675H21.3958C23.9417 25.675 26 23.6166 26 21.0708V4.92912C26 2.38328 23.9417 0.324951 21.3958 0.324951ZM15.925 18.2325H13.6598C13.585 18.2433 13.5092 18.1891 13.4875 18.1133L12.5992 15.535H8.56917L7.74583 18.0808C7.72417 18.1783 7.6375 18.2433 7.54 18.2335H5.50333C5.38417 18.2335 5.35167 18.1675 5.38417 18.0385L8.8725 7.99495C8.905 7.88662 8.9375 7.76745 8.98083 7.63745C9.02417 7.40995 9.04583 7.17162 9.04583 6.93328C9.035 6.87912 9.07833 6.82495 9.1325 6.81412H11.9383C12.025 6.81412 12.0683 6.84662 12.0792 6.90078L16.0333 18.0591C16.0658 18.1772 16.0333 18.2325 15.925 18.2325ZM19.6083 18.07C19.6083 18.1891 19.5661 18.2433 19.4686 18.2433H17.3442C17.2358 18.2433 17.1817 18.1772 17.1817 18.07V9.72828C17.1817 9.61995 17.2261 9.57662 17.3236 9.57662H19.4686C19.5661 9.57662 19.6083 9.63078 19.6083 9.72828V18.07ZM19.3819 8.28745C19.254 8.41739 19.0997 8.51845 18.9295 8.58384C18.7593 8.64924 18.577 8.67746 18.395 8.66662C18.0375 8.67745 17.6908 8.53662 17.4298 8.28745C17.1815 8.01607 17.0494 7.65836 17.0614 7.29078C17.0506 6.92245 17.1914 6.57578 17.4503 6.32662C17.7125 6.07745 18.0592 5.94745 18.4167 5.94745C18.8403 5.94745 19.1631 6.07745 19.4025 6.32662C19.6408 6.58662 19.7708 6.93328 19.76 7.29078C19.7708 7.65912 19.6408 8.01662 19.3819 8.28745Z" fill="#393939"/>
</g>
<defs>
<clipPath id="clip0_151_555">
<rect width="26" height="26" fill="white"/>
</clipPath>
</defs>
</svg>
