<svg width="26" height="26" viewBox="0 0 26 26" fill="none" xmlns="http://www.w3.org/2000/svg">
<g clip-path="url(#clip0_151_545)">
<path fill-rule="evenodd" clip-rule="evenodd" d="M10.2062 8.45325C9.45831 8.26536 8.70939 8.32569 7.91903 8.44878C7.91903 9.83105 7.91619 11.1761 7.92655 12.5214C7.92695 12.5903 8.03034 12.7101 8.09737 12.7193C8.95923 12.8357 9.81642 12.845 10.6224 12.4522C11.4562 12.0459 11.881 11.1965 11.7709 10.1991C11.671 9.29094 11.1333 8.68624 10.2062 8.45325ZM25.7969 12.9925V0.667266C25.7969 0.241516 25.8015 0.203125 25.3882 0.203125H0.706672C0.304688 0.203125 0.203125 0.241719 0.203125 0.647156V25.3287C0.203125 25.7386 0.254313 25.7392 0.651828 25.7392C8.88956 25.7394 17.1519 25.7374 25.3896 25.7467C25.7091 25.7471 25.7948 25.662 25.794 25.3488C25.7831 21.23 25.7969 17.1108 25.7969 12.9925ZM11.4465 14.1787C10.3177 14.5813 9.14062 14.6039 7.92188 14.5094V19.0938H5.6875V18.809C5.6875 14.9709 5.66983 11.1333 5.65906 7.29544C5.65784 6.97674 5.70842 6.82277 6.06755 6.7862C7.75998 6.61314 9.44287 6.41855 11.1258 6.81322C12.9348 7.23714 13.9778 8.43314 14.0571 10.0856C14.1552 12.1318 13.2559 13.5334 11.4465 14.1787ZM20.447 16.7694C20.3608 17.9416 19.6999 18.7113 18.6158 19.0834C17.1651 19.5815 15.7223 19.4659 14.3045 18.9024C14.0723 18.81 14.0274 18.693 14.104 18.4563C14.2435 18.0245 14.3457 17.5805 14.4534 17.1795C15.0528 17.3554 15.6228 17.575 16.2132 17.6788C16.6303 17.7521 17.081 17.709 17.5049 17.6426C17.885 17.5829 18.1584 17.3249 18.2207 16.9171C18.2841 16.5025 18.1592 16.1434 17.7931 15.9228C17.5023 15.7477 17.1817 15.6223 16.8744 15.4755C16.3802 15.2393 15.8535 15.054 15.3977 14.7585C13.6039 13.5952 14.1879 11.4307 15.3849 10.6155C16.0253 10.1796 16.734 9.98624 17.4927 9.95963C18.385 9.92834 19.2443 10.0823 20.0883 10.4924L19.6424 12.0746C19.289 11.9494 18.9599 11.7869 18.6125 11.7223C18.2004 11.6456 17.7682 11.6027 17.3522 11.6366C16.7944 11.6823 16.4678 12.0673 16.4678 12.5446C16.4678 12.8273 16.575 13.0666 16.8108 13.2037C17.1492 13.4006 17.5084 13.5629 17.8642 13.7276C18.2494 13.9057 18.656 14.0426 19.0267 14.246C20.0159 14.7883 20.5309 15.6272 20.447 16.7694Z" fill="#393939"/>
</g>
<defs>
<clipPath id="clip0_151_545">
<rect width="26" height="26" rx="6" fill="white"/>
</clipPath>
</defs>
</svg>
