<svg width="26" height="26" viewBox="0 0 26 26" fill="none" xmlns="http://www.w3.org/2000/svg">
<g clip-path="url(#clip0_151_536)">
<path d="M26 0.475736C26 0.0413683 26 0 25.5873 0H0.515873C0.103175 0 0 0.0413683 0 0.455052V25.5863C0 26 0.0619048 26 0.453968 26H25.5873C25.9175 26 26 25.9173 26 25.5863C25.9794 21.4081 26 17.2092 26 13.031V0.475736ZM11.9064 19.2363L9.90476 14.7271L7.8 19.2363H5.48889L8.48095 13.1758L5.69524 6.76372L8.06825 6.78441L9.82222 10.9833L11.9683 6.76372H14.1968L11.1841 12.8449L14.1762 19.2363H11.9064ZM20.9032 6.99125V18.6985C20.9032 19.0088 20.8619 19.1949 20.5524 19.2156C19.1079 19.4017 17.6635 19.6086 16.2397 19.1949C14.6921 18.7605 13.8048 17.5402 13.7429 15.8648C13.6603 13.7963 14.4444 12.3691 15.9714 11.7072C16.9206 11.2936 17.8905 11.2729 18.9841 11.3763V6.78441H20.9032V6.99125ZM16.8794 17.6229C17.5603 17.8091 18.2413 17.747 18.9429 17.6229V13.4861C18.9429 13.424 18.8603 13.2999 18.7984 13.2792C18.0349 13.1551 17.2508 13.1551 16.5286 13.5481C15.7857 13.9618 15.3937 14.8305 15.4762 15.8441C15.5381 16.7749 16.0333 17.3747 16.8794 17.6229Z" fill="#393939"/>
</g>
<defs>
<clipPath id="clip0_151_536">
<rect width="26" height="26" rx="6" fill="white"/>
</clipPath>
</defs>
</svg>
